<mxfile host="app.diagrams.net" modified="2020-10-19T13:47:23.852Z" agent="5.0 (X11; Linux x86_64) AppleWebKit/537.36 (KHTML, like Gecko) Brave Chrome/83.0.4103.116 Safari/537.36" etag="gBsgTjdB_r0zI-QexgKY" version="13.8.0" type="github">
  <diagram name="Page-1" id="80d4a630-b321-0f5e-ff81-c5a36ef4752d">
    <mxGraphModel dx="1636" dy="929" grid="1" gridSize="10" guides="1" tooltips="1" connect="1" arrows="1" fold="1" page="1" pageScale="1" pageWidth="1100" pageHeight="850" background="#ffffff" math="0" shadow="0">
      <root>
        <mxCell id="0" />
        <mxCell id="1" parent="0" />
        <mxCell id="QX0fr2FHLzYP8gWPoVnW-1" value="" style="shape=process;whiteSpace=wrap;html=1;backgroundOutline=1;" parent="1" vertex="1">
          <mxGeometry x="90" y="530" width="280" height="60" as="geometry" />
        </mxCell>
        <mxCell id="QX0fr2FHLzYP8gWPoVnW-2" value="ADM Graphics card" style="text;html=1;strokeColor=none;fillColor=none;align=center;verticalAlign=middle;whiteSpace=wrap;rounded=0;" parent="1" vertex="1">
          <mxGeometry x="190" y="550" width="100" height="20" as="geometry" />
        </mxCell>
        <mxCell id="QX0fr2FHLzYP8gWPoVnW-3" value="" style="shape=process;whiteSpace=wrap;html=1;backgroundOutline=1;" parent="1" vertex="1">
          <mxGeometry x="540" y="530" width="280" height="60" as="geometry" />
        </mxCell>
        <mxCell id="QX0fr2FHLzYP8gWPoVnW-4" value="NVIDIA Graphics card" style="text;html=1;strokeColor=none;fillColor=none;align=center;verticalAlign=middle;whiteSpace=wrap;rounded=0;" parent="1" vertex="1">
          <mxGeometry x="640" y="550" width="100" height="20" as="geometry" />
        </mxCell>
        <mxCell id="QX0fr2FHLzYP8gWPoVnW-5" value="" style="rounded=1;whiteSpace=wrap;html=1;" parent="1" vertex="1">
          <mxGeometry x="90" y="430" width="730" height="60" as="geometry" />
        </mxCell>
        <mxCell id="QX0fr2FHLzYP8gWPoVnW-6" value="Host OS" style="text;html=1;strokeColor=none;fillColor=none;align=center;verticalAlign=middle;whiteSpace=wrap;rounded=0;" parent="1" vertex="1">
          <mxGeometry x="270" y="440" width="370" height="40" as="geometry" />
        </mxCell>
        <mxCell id="QX0fr2FHLzYP8gWPoVnW-7" value="" style="shape=cube;whiteSpace=wrap;html=1;boundedLbl=1;backgroundOutline=1;darkOpacity=0.05;darkOpacity2=0.1;size=30;" parent="1" vertex="1">
          <mxGeometry x="70" y="250" width="210" height="150" as="geometry" />
        </mxCell>
        <mxCell id="QX0fr2FHLzYP8gWPoVnW-8" value="Docker container" style="text;html=1;strokeColor=none;fillColor=none;align=center;verticalAlign=middle;whiteSpace=wrap;rounded=0;" parent="1" vertex="1">
          <mxGeometry x="90" y="250" width="150" height="30" as="geometry" />
        </mxCell>
        <mxCell id="QX0fr2FHLzYP8gWPoVnW-9" value="" style="shape=cube;whiteSpace=wrap;html=1;boundedLbl=1;backgroundOutline=1;darkOpacity=0.05;darkOpacity2=0.1;size=30;" parent="1" vertex="1">
          <mxGeometry x="610" y="250" width="210" height="150" as="geometry" />
        </mxCell>
        <mxCell id="QX0fr2FHLzYP8gWPoVnW-10" value="Docker container" style="text;html=1;strokeColor=none;fillColor=none;align=center;verticalAlign=middle;whiteSpace=wrap;rounded=0;" parent="1" vertex="1">
          <mxGeometry x="630" y="250" width="150" height="30" as="geometry" />
        </mxCell>
        <mxCell id="QX0fr2FHLzYP8gWPoVnW-11" value="Simulation" style="text;html=1;strokeColor=none;fillColor=none;align=center;verticalAlign=middle;whiteSpace=wrap;rounded=0;" parent="1" vertex="1">
          <mxGeometry x="120" y="310" width="120" height="50" as="geometry" />
        </mxCell>
        <mxCell id="QX0fr2FHLzYP8gWPoVnW-15" value="ML framework" style="text;html=1;strokeColor=none;fillColor=none;align=center;verticalAlign=middle;whiteSpace=wrap;rounded=0;" parent="1" vertex="1">
          <mxGeometry x="665" y="310" width="130" height="50" as="geometry" />
        </mxCell>
        <mxCell id="QX0fr2FHLzYP8gWPoVnW-18" value="" style="shape=flexArrow;endArrow=classic;html=1;entryX=0.384;entryY=-0.068;entryDx=0;entryDy=0;entryPerimeter=0;" parent="1" target="QX0fr2FHLzYP8gWPoVnW-1" edge="1">
          <mxGeometry width="50" height="50" relative="1" as="geometry">
            <mxPoint x="198" y="400" as="sourcePoint" />
            <mxPoint x="220" y="360" as="targetPoint" />
            <Array as="points">
              <mxPoint x="198" y="460" />
            </Array>
          </mxGeometry>
        </mxCell>
        <mxCell id="QX0fr2FHLzYP8gWPoVnW-22" value="" style="shape=flexArrow;endArrow=classic;html=1;entryX=0.638;entryY=-0.028;entryDx=0;entryDy=0;entryPerimeter=0;" parent="1" target="QX0fr2FHLzYP8gWPoVnW-3" edge="1">
          <mxGeometry width="50" height="50" relative="1" as="geometry">
            <mxPoint x="720" y="400" as="sourcePoint" />
            <mxPoint x="770" y="350" as="targetPoint" />
          </mxGeometry>
        </mxCell>
        <mxCell id="7oqyD-tatnN8QMheaLxS-1" value="ROS" style="text;html=1;strokeColor=none;fillColor=none;align=center;verticalAlign=middle;whiteSpace=wrap;rounded=0;" vertex="1" parent="1">
          <mxGeometry x="430" y="315" width="40" height="20" as="geometry" />
        </mxCell>
        <mxCell id="7oqyD-tatnN8QMheaLxS-4" value="" style="endArrow=classic;html=1;" edge="1" parent="1">
          <mxGeometry relative="1" as="geometry">
            <mxPoint x="280" y="300" as="sourcePoint" />
            <mxPoint x="611" y="298" as="targetPoint" />
          </mxGeometry>
        </mxCell>
        <mxCell id="7oqyD-tatnN8QMheaLxS-5" value="" style="shape=message;html=1;outlineConnect=0;" vertex="1" parent="7oqyD-tatnN8QMheaLxS-4">
          <mxGeometry width="20" height="14" relative="1" as="geometry">
            <mxPoint x="-10" y="-7" as="offset" />
          </mxGeometry>
        </mxCell>
        <mxCell id="7oqyD-tatnN8QMheaLxS-6" value="" style="endArrow=classic;html=1;exitX=0;exitY=0.662;exitDx=0;exitDy=0;exitPerimeter=0;entryX=1.021;entryY=0.662;entryDx=0;entryDy=0;entryPerimeter=0;" edge="1" parent="1" source="QX0fr2FHLzYP8gWPoVnW-9" target="QX0fr2FHLzYP8gWPoVnW-7">
          <mxGeometry relative="1" as="geometry">
            <mxPoint x="279" y="342" as="sourcePoint" />
            <mxPoint x="290" y="320" as="targetPoint" />
          </mxGeometry>
        </mxCell>
        <mxCell id="7oqyD-tatnN8QMheaLxS-7" value="" style="shape=message;html=1;outlineConnect=0;" vertex="1" parent="7oqyD-tatnN8QMheaLxS-6">
          <mxGeometry width="20" height="14" relative="1" as="geometry">
            <mxPoint x="-10" y="-7" as="offset" />
          </mxGeometry>
        </mxCell>
      </root>
    </mxGraphModel>
  </diagram>
</mxfile>
